<svg width="201" height="151" viewBox="0 0 201 151" fill="none" xmlns="http://www.w3.org/2000/svg">
<rect x="12.77" width="4.90798" height="150" fill="#947C5B"/>
<rect x="185.163" width="4.90798" height="150" fill="#947C5B"/>
<path d="M32.6585 127.454C29.6054 126.55 27.8556 126.1 26.8642 125.895C26.7806 125.697 26.7098 125.52 26.6384 125.332C26.0203 123.486 25.3457 121.706 23.6575 117.436C23.0993 114.567 22.7822 111.702 24.3423 109.644C25.1838 108.534 28.9302 104.631 36.1377 100.045C39.6406 97.8166 43.0913 96.2417 46.5942 94.9349C50.097 93.6282 53.5477 92.6202 56.1904 91.954C58.8332 91.2877 60.6142 90.9727 65.6619 90.7503C70.7097 90.5279 78.7808 90.4532 82.9867 90.3065C87.5276 90.148 88.8246 90.2946 93.9102 85.9586C97.2521 83.1094 102.87 77.9167 106.169 75.1954C110.188 71.8804 113.936 68.8352 119.491 68.7667C124.602 68.7037 129.055 68.7937 132.419 69.474C137.135 70.4276 142.705 72.0049 148.083 74.8995C150.823 76.3743 153.552 77.9777 155.346 79.4125C158.199 81.6948 161.195 85.0804 164.938 90.5766C166.946 93.5251 169.061 96.864 171.638 102.395C174.215 107.927 177.792 115.192 178.725 119.626C180.677 128.903 181.102 136.461 180.252 137.817C179.375 139.216 178.019 140.714 171.705 142.151C168.312 142.924 162.913 143.994 153.906 144.627C144.9 145.26 132.655 145.449 115.438 143.791C98.2201 142.133 76.6816 138.731 61.4397 135.44C46.1978 132.149 37.5545 128.903 32.6585 127.454Z" fill="#3D3B40"/>
<path d="M25.6291 125.784C25.7404 125.658 26.7995 125.719 32.6585 127.454C37.5545 128.903 46.1978 132.149 61.4397 135.44C76.6816 138.731 98.2201 142.133 115.438 143.791C132.655 145.449 144.9 145.26 153.906 144.627C162.913 143.994 168.312 142.924 171.705 142.151C178.019 140.714 179.375 139.216 180.252 137.817C181.102 136.461 180.677 128.903 178.725 119.626C177.792 115.192 174.215 107.927 171.638 102.395C169.061 96.864 166.946 93.5251 164.938 90.5766C161.195 85.0804 158.199 81.6948 155.346 79.4125C153.552 77.9777 150.823 76.3743 148.083 74.8995C142.705 72.0049 137.135 70.4276 132.419 69.474C129.055 68.7937 124.602 68.7037 119.491 68.7667C113.936 68.8352 110.188 71.8804 106.169 75.1954C102.87 77.9167 97.2521 83.1094 93.9102 85.9586C88.8246 90.2946 87.5276 90.148 82.9867 90.3065C78.7808 90.4532 70.7097 90.5279 65.6619 90.7503C60.6142 90.9727 58.8332 91.2877 56.1904 91.954C53.5477 92.6202 50.097 93.6282 46.5942 94.9349C43.0913 96.2417 39.6406 97.8166 36.1377 100.045C28.9302 104.631 25.1838 108.534 24.3423 109.644C22.7822 111.702 23.0993 114.567 23.6575 117.436C25.3457 121.706 26.0203 123.486 26.6384 125.332C26.8079 125.78 26.9749 126.158 27.3156 126.93" stroke="black" stroke-width="2" stroke-linecap="round"/>
<path d="M0.5 112.5V150H17.6779V112.5L10.9294 98.6111L0.5 112.5Z" fill="#C19F6E" stroke="black"/>
<path d="M17.6779 112.5V150H34.8558V112.5L28.1074 98.6111L17.6779 112.5Z" fill="#C19F6E" stroke="black"/>
<path d="M34.8558 112.5V150H52.0337V112.5L45.2853 98.6111L34.8558 112.5Z" fill="#C19F6E" stroke="black"/>
<path d="M52.0338 112.5V150H69.2117V112.5L62.4632 98.6111L52.0338 112.5Z" fill="#C19F6E" stroke="black"/>
<path d="M131.788 112.5V150H148.966V112.5L142.218 98.6111L131.788 112.5Z" fill="#C19F6E" stroke="black"/>
<path d="M148.966 112.5V150H166.144V112.5L159.396 98.6111L148.966 112.5Z" fill="#C19F6E" stroke="black"/>
<path d="M166.144 112.5V150H183.322V112.5L176.574 98.6111L166.144 112.5Z" fill="#C19F6E" stroke="black"/>
<path d="M183.322 112.5V150H200.5V112.5L193.752 98.6111L183.322 112.5Z" fill="#C19F6E" stroke="black"/>
<rect x="17.6779" width="167.485" height="38.1944" fill="#D9D9D9"/>
<path d="M57.243 27.55L56.268 9.225C56.268 8.9 56.518 8.6 56.843 8.6L60.843 8.375C62.143 7.95 63.618 7.725 65.093 7.725C69.318 7.725 73.743 9.55 75.168 13.925C75.718 15.6 75.968 17.15 75.968 18.55C75.968 25.625 69.768 29.5 62.668 29.5C61.518 29.5 60.343 29.4 59.168 29.2C58.968 29.15 58.768 29.125 58.593 29.1C57.768 28.9 57.293 28.5 57.243 27.55ZM62.768 13.275L63.318 23.625C63.518 23.65 63.718 23.65 63.918 23.65C66.818 23.65 69.218 21.575 69.218 18.4C69.218 17.975 69.193 13.025 64.568 13.025C63.968 13.025 63.343 13.125 62.768 13.275ZM93.008 7.95H98.008C98.333 7.95 98.608 8.225 98.633 8.55C98.733 10.2 98.833 13.025 98.833 15.85C98.833 17.55 98.808 19.275 98.683 20.725C98.233 26.5 93.408 29.4 88.708 29.4C84.133 29.4 79.683 26.675 79.383 21.1L78.758 9.3V9.25C78.758 8.925 79.008 8.675 79.308 8.65L84.383 8.4H84.433C84.733 8.4 84.983 8.65 85.008 8.95C85.608 20.525 85.483 17.575 85.608 20.35C85.708 22.375 87.258 23.375 88.858 23.375C90.508 23.375 92.183 22.3 92.358 20.175C92.458 19 92.483 17.4 92.483 15.675C92.483 13.425 92.408 10.925 92.308 8.65V8.6C92.308 8.075 92.758 7.95 93.008 7.95ZM124.998 29.1H124.973L119.898 28.725C119.348 28.7 119.098 28.15 119.098 27.875V27.85L120.273 17.05V16.925C120.273 16.75 120.248 16.65 120.173 16.65C120.123 16.65 120.048 16.725 119.948 16.85C119.498 17.475 117.673 21.375 116.448 23.675C116.348 23.875 116.073 24.225 115.523 24.25L112.948 24.35C112.498 24.35 112.248 23.975 112.098 23.675C110.848 21.375 109.023 17.625 108.548 16.975C108.448 16.85 108.373 16.775 108.298 16.775C108.248 16.775 108.223 16.875 108.223 17.025V17.2L109.348 27.825V27.85C109.348 28.125 108.998 28.65 108.448 28.7L103.648 29.1H103.623C103.223 29.1 102.948 28.725 102.948 28.375L101.973 9.025C101.973 8.75 102.123 8.375 102.598 8.325L107.523 8.05H107.573C107.923 8.05 108.423 8.25 108.523 8.375C109.748 9.825 112.098 13.525 114.148 17.05C114.198 17.125 114.223 17.15 114.273 17.15C114.323 17.15 114.348 17.1 114.398 17.025C116.448 13.5 118.798 9.825 120.023 8.375C120.123 8.25 120.523 8.05 120.873 8.05H120.923L125.898 8.3C126.373 8.325 126.523 8.675 126.523 8.95V9L125.673 28.375C125.648 28.725 125.373 29.1 124.998 29.1ZM135.238 29.1H135.188L129.938 28.825C129.638 28.8 129.438 28.575 129.438 28.275L130.463 8.5C130.463 8.25 130.688 8.025 130.963 8.025H131.013L135.588 8.25C136.588 7.925 137.588 7.75 138.563 7.75C143.188 7.75 147.363 11.175 147.363 16C147.363 20.625 144.213 23.85 139.013 23.85C137.963 23.85 136.938 23.7 135.988 23.425L135.738 28.6C135.713 28.875 135.488 29.1 135.238 29.1ZM136.513 13.2L136.238 18.45C136.788 18.7 137.488 18.875 138.163 18.875C140.913 18.875 140.913 16.2 140.913 16.025C140.913 14.275 139.513 13.05 137.663 13.05C137.313 13.05 136.913 13.1 136.513 13.2Z" fill="#24791E"/>
</svg>
